<?xml version="1.0" standalone="no"?>
<!DOCTYPE svg PUBLIC "-//W3C//DTD SVG 20010904//EN"
 "http://www.w3.org/TR/2001/REC-SVG-20010904/DTD/svg10.dtd">
<svg version="1.0" xmlns="http://www.w3.org/2000/svg"
 width="900.000000pt" height="900.000000pt" viewBox="0 0 900.000000 900.000000"
 preserveAspectRatio="xMidYMid meet">
<metadata>
Created by potrace 1.14, written by Peter Selinger 2001-2017
</metadata>
<g transform="translate(0.000000,900.000000) scale(0.100000,-0.100000)"
fill="#000000" stroke="none">
<path d="M3480 8406 c-3 -2 -32 -7 -65 -10 -85 -8 -234 -53 -273 -83 -77 -59
-57 -111 66 -170 42 -20 80 -41 84 -47 11 -15 26 -68 44 -146 16 -73 25 -122
38 -207 3 -16 7 -47 11 -71 4 -23 8 -52 10 -65 6 -47 36 -284 41 -322 2 -22 6
-56 9 -75 2 -19 7 -64 10 -100 4 -36 9 -78 10 -95 2 -16 7 -59 10 -95 3 -36 8
-81 10 -100 4 -33 8 -69 20 -195 2 -27 7 -81 10 -120 2 -38 7 -90 9 -115 3
-25 8 -83 12 -130 3 -47 7 -101 9 -120 2 -19 6 -80 10 -135 3 -55 8 -111 10
-125 2 -14 6 -86 10 -160 4 -74 8 -151 10 -170 2 -19 6 -93 10 -165 3 -71 8
-157 10 -190 16 -235 23 -772 11 -900 -9 -97 -19 -128 -45 -141 -81 -41 -276
219 -787 1051 -71 115 -133 218 -139 228 -5 10 -113 189 -240 399 -126 209
-240 398 -253 420 -22 39 -99 161 -190 303 -99 155 -238 357 -273 400 -10 11
-40 49 -69 85 -260 329 -425 358 -530 90 -21 -52 -57 -193 -65 -248 -2 -15 -6
-40 -9 -57 -6 -34 -13 -88 -31 -235 -11 -86 -22 -251 -40 -570 -5 -83 -15
-412 -20 -650 -3 -102 -7 -635 -9 -1185 -5 -925 -10 -1334 -21 -1865 -7 -281
-21 -692 -30 -865 -3 -49 -7 -139 -10 -200 -18 -356 -41 -541 -81 -662 -44
-131 -45 -182 -5 -216 56 -46 157 -58 516 -57 279 1 341 4 540 26 77 8 155 34
155 52 0 36 -90 186 -241 402 -101 145 -148 227 -184 325 -37 99 -87 307 -100
425 -3 19 -9 67 -14 105 -6 39 -13 95 -16 125 -3 30 -8 71 -10 90 -3 19 -7 71
-11 115 -3 44 -7 96 -9 115 -2 19 -6 82 -9 140 -4 58 -9 130 -11 160 -3 30 -7
107 -10 170 -3 63 -7 144 -10 180 -2 36 -7 130 -10 210 -3 80 -8 183 -10 230
-6 97 -13 256 -21 475 -3 83 -7 191 -9 240 -22 483 -23 1489 -1 1600 2 11 7
46 10 79 14 114 38 154 76 123 31 -25 143 -168 270 -347 196 -275 860 -1277
1010 -1525 8 -13 60 -95 115 -181 55 -86 109 -172 120 -190 11 -19 72 -117
135 -219 63 -102 139 -225 167 -273 29 -48 57 -94 62 -102 24 -37 262 -440
286 -485 15 -27 44 -79 65 -115 47 -82 95 -177 158 -310 56 -117 118 -191 180
-211 35 -12 37 -11 70 27 81 94 268 403 475 784 16 30 37 69 47 85 10 17 43
80 75 140 32 61 77 146 100 190 40 76 133 257 550 1080 98 193 181 355 185
360 6 8 97 182 207 395 77 149 318 579 421 750 306 512 479 705 581 650 36
-19 67 -150 86 -370 3 -30 7 -75 10 -100 3 -25 7 -92 10 -150 3 -58 8 -132 10
-165 2 -33 7 -132 11 -220 46 -1149 31 -2935 -31 -3725 -2 -30 -7 -89 -10
-130 -3 -41 -8 -91 -11 -111 -2 -20 -7 -55 -9 -79 -15 -143 -29 -201 -76 -302
-46 -99 -56 -146 -40 -177 14 -25 63 -47 123 -56 24 -3 59 -8 78 -11 19 -3
353 -7 742 -9 531 -2 706 0 701 9 -4 6 -59 92 -124 191 -64 99 -128 203 -142
230 -104 207 -151 623 -172 1510 -3 99 -7 673 -10 1275 -4 1051 -13 1981 -20
2235 -9 334 -17 544 -30 766 -7 134 -22 316 -30 374 -3 17 -7 53 -10 80 -14
131 -44 228 -74 241 -110 46 -379 39 -512 -14 -59 -23 -182 -138 -281 -262
-252 -317 -544 -800 -1252 -2074 -181 -324 -339 -607 -352 -628 -13 -20 -24
-39 -24 -42 0 -2 -52 -93 -116 -203 -64 -109 -126 -214 -137 -233 -10 -19 -47
-78 -80 -130 -33 -52 -69 -111 -81 -130 -65 -110 -223 -328 -276 -380 -68 -68
-120 -79 -145 -31 -14 29 -39 151 -50 253 -3 29 -8 64 -10 78 -2 14 -7 66 -11
115 -3 50 -8 106 -10 125 -1 19 -6 82 -9 140 -3 58 -8 132 -10 165 -14 212
-21 366 -40 885 -27 740 -27 2409 0 2655 2 22 7 67 10 100 9 92 15 123 42 214
30 99 31 151 6 186 -29 39 -129 70 -262 81 -36 3 -79 7 -96 10 -42 7 -469 16
-475 10z"/>
</g>
</svg>
